<svg xmlns="http://www.w3.org/2000/svg" viewBox="0 0 100 100" width="100" height="100" role="img" aria-label="Sniff Test nose">
  <title>Sniff Test nose, concept C: Beak</title>
  <!--
    Hand-drawn: each contour is a hand-placed centreline with a width profile, expanded into a
    tapered outline with a little tremor (assets/nose/build.mjs holds the drawing). No raster, no
    image generation. Ink is currentColor so the mark sits on any ground; the one accent is the CSS
    variable nose-accent. Every rig part carries id + data-part (use data-part when several copies
    share a page). Transforms are applied by consumers per assets/nose/expressions.json.
  -->
  <g id="stage" data-part="stage" stroke-linecap="round" stroke-linejoin="round">
    <g id="nose" data-part="nose" fill="currentColor" stroke="none">
      <g id="construction" data-part="construction" opacity="0.16" fill="none" stroke="currentColor" stroke-width="1.4">
        <path d="M68 6 6 66"/>
        <path d="M14 56c4.5 0 8 3.5 8 8s-3.5 8-8 8-8-3.5-8-8 3-8 7.5-8"/>
      </g>
      <g id="bridge" data-part="bridge">
        <path d="M65.29 7.29C65.02 7.52 64.2 8.2 63.63 8.68C63.07 9.16 62.53 9.65 61.9 10.18C61.28 10.7 60.53 11.25 59.9 11.82C59.26 12.4 58.71 12.99 58.11 13.62C57.5 14.25 56.97 15.01 56.27 15.58C55.57 16.15 54.58 16.39 53.9 17.03C53.21 17.66 52.82 18.68 52.18 19.38C51.54 20.09 50.81 20.63 50.04 21.29C49.26 21.94 48.22 22.58 47.52 23.3C46.82 24.03 46.48 24.86 45.82 25.63C45.16 26.4 44.33 27.1 43.57 27.9C42.81 28.7 42 29.62 41.25 30.43C40.5 31.24 39.82 31.97 39.06 32.76C38.3 33.55 37.48 34.33 36.71 35.15C35.94 35.97 35.23 36.86 34.44 37.7C33.65 38.54 32.71 39.34 31.96 40.19C31.21 41.04 30.65 41.97 29.93 42.79C29.2 43.62 28.35 44.34 27.61 45.13C26.87 45.91 26.21 46.72 25.51 47.49C24.82 48.27 23.77 49.39 23.43 49.77C22.47 50.92 22.63 52.62 23.77 53.57C24.92 54.53 26.62 54.37 27.57 53.23C27.9 52.87 28.84 51.82 29.51 51.07C30.17 50.33 30.86 49.58 31.55 48.76C32.24 47.94 32.89 47 33.64 46.15C34.39 45.31 35.25 44.52 36.04 43.69C36.83 42.85 37.7 42.05 38.4 41.15C39.1 40.25 39.57 39.18 40.24 38.28C40.91 37.39 41.7 36.59 42.41 35.77C43.12 34.96 43.71 34.16 44.49 33.39C45.27 32.62 46.34 31.95 47.09 31.16C47.85 30.37 48.36 29.38 49.03 28.63C49.7 27.89 50.4 27.41 51.09 26.68C51.78 25.96 52.49 25.02 53.16 24.27C53.83 23.53 54.51 22.96 55.12 22.23C55.73 21.5 56.22 20.59 56.84 19.89C57.46 19.2 58.24 18.77 58.82 18.08C59.4 17.4 59.74 16.45 60.31 15.8C60.88 15.14 61.63 14.74 62.23 14.14C62.83 13.54 63.41 12.82 63.92 12.18C64.43 11.55 64.83 10.92 65.3 10.34C65.76 9.77 66.47 8.98 66.71 8.71C67.1 8.32 67.1 7.68 66.71 7.29C66.32 6.9 65.68 6.9 65.29 7.29Z"/>
        <g id="wrinkle" data-part="wrinkle" opacity="0">
          <path d="M50.2 22.41C50.28 22.38 50.53 22.29 50.73 22.24C50.92 22.19 51.17 22.18 51.35 22.12C51.53 22.06 51.61 21.93 51.81 21.89C52.02 21.86 52.39 21.98 52.57 21.92C52.76 21.86 52.76 21.59 52.92 21.55C53.08 21.51 53.35 21.74 53.51 21.68C53.68 21.62 53.77 21.31 53.92 21.19C54.08 21.07 54.24 20.99 54.43 20.94C54.61 20.89 54.85 20.93 55.02 20.88C55.2 20.84 55.31 20.8 55.48 20.68C55.66 20.57 55.91 20.36 56.07 20.2C56.24 20.04 56.37 19.83 56.49 19.74C56.61 19.64 56.69 19.77 56.81 19.64C56.94 19.51 57.09 19.09 57.23 18.94C57.38 18.79 57.54 18.85 57.7 18.76C57.86 18.67 58.11 18.47 58.2 18.41C58.42 18.3 58.51 18.03 58.41 17.8C58.3 17.58 58.03 17.49 57.8 17.59C57.7 17.61 57.36 17.65 57.18 17.7C57 17.75 56.92 17.85 56.72 17.9C56.53 17.96 56.19 18 56.01 18.03C55.84 18.06 55.84 18.1 55.67 18.1C55.5 18.11 55.22 18.01 55 18.06C54.77 18.11 54.52 18.32 54.32 18.39C54.13 18.47 53.99 18.47 53.81 18.51C53.64 18.55 53.41 18.53 53.26 18.65C53.11 18.76 53.07 19.09 52.91 19.2C52.75 19.31 52.45 19.2 52.31 19.31C52.17 19.41 52.18 19.73 52.06 19.84C51.93 19.94 51.74 19.83 51.57 19.92C51.4 20.02 51.18 20.19 51.06 20.39C50.94 20.58 50.97 20.92 50.84 21.08C50.71 21.24 50.46 21.25 50.28 21.33C50.11 21.42 49.88 21.55 49.8 21.59C49.58 21.7 49.49 21.97 49.59 22.2C49.7 22.42 49.97 22.51 50.2 22.41Z"/>
        <path d="M46.17 28.42C46.28 28.4 46.61 28.4 46.82 28.32C47.02 28.25 47.22 28.06 47.39 27.99C47.56 27.92 47.66 27.92 47.84 27.91C48.01 27.9 48.22 27.92 48.44 27.94C48.65 27.96 48.9 28.14 49.13 28.05C49.36 27.96 49.59 27.5 49.81 27.42C50.04 27.33 50.28 27.51 50.47 27.56C50.65 27.61 50.73 27.84 50.91 27.72C51.08 27.59 51.33 27.02 51.52 26.82C51.71 26.63 51.87 26.61 52.03 26.53C52.18 26.45 52.26 26.42 52.44 26.35C52.63 26.29 52.96 26.24 53.13 26.14C53.29 26.04 53.25 25.86 53.42 25.75C53.6 25.63 53.99 25.56 54.19 25.46C54.38 25.36 54.45 25.24 54.61 25.15C54.77 25.06 55.07 24.96 55.17 24.92C55.4 24.83 55.51 24.56 55.42 24.33C55.33 24.1 55.06 23.99 54.83 24.08C54.74 24.11 54.44 24.2 54.25 24.24C54.07 24.28 53.97 24.3 53.74 24.31C53.5 24.32 53.08 24.31 52.87 24.32C52.65 24.33 52.62 24.31 52.44 24.37C52.26 24.43 51.97 24.6 51.8 24.69C51.63 24.79 51.6 24.94 51.42 24.97C51.25 24.99 51.02 24.83 50.76 24.85C50.51 24.86 50.08 24.99 49.89 25.07C49.7 25.16 49.74 25.24 49.62 25.35C49.5 25.46 49.37 25.59 49.16 25.72C48.96 25.86 48.61 26.02 48.4 26.16C48.19 26.3 48.09 26.5 47.91 26.57C47.73 26.64 47.47 26.51 47.31 26.57C47.16 26.63 47.14 26.84 46.98 26.95C46.83 27.05 46.57 27.1 46.37 27.21C46.18 27.32 45.92 27.52 45.83 27.58C45.6 27.67 45.49 27.94 45.58 28.17C45.67 28.4 45.94 28.51 46.17 28.42Z"/>
        <path d="M42.14 34.43C42.23 34.4 42.46 34.28 42.68 34.28C42.9 34.28 43.25 34.48 43.46 34.43C43.67 34.38 43.77 34.01 43.96 33.99C44.16 33.97 44.44 34.25 44.63 34.29C44.82 34.33 44.94 34.32 45.12 34.23C45.31 34.15 45.58 33.86 45.76 33.77C45.94 33.69 46.03 33.8 46.19 33.75C46.35 33.7 46.48 33.52 46.71 33.48C46.95 33.45 47.35 33.58 47.6 33.56C47.84 33.55 48.04 33.48 48.17 33.38C48.31 33.28 48.27 33.14 48.4 32.96C48.53 32.78 48.78 32.46 48.94 32.32C49.1 32.18 49.15 32.19 49.35 32.13C49.54 32.07 49.89 32.02 50.11 31.96C50.34 31.89 50.51 31.85 50.68 31.76C50.85 31.68 51.06 31.48 51.14 31.43C51.38 31.35 51.51 31.09 51.43 30.86C51.35 30.62 51.09 30.49 50.86 30.57C50.77 30.59 50.51 30.67 50.31 30.67C50.11 30.67 49.9 30.6 49.66 30.59C49.41 30.58 49.03 30.51 48.84 30.61C48.66 30.71 48.74 31.09 48.56 31.19C48.39 31.29 48.02 31.25 47.81 31.19C47.6 31.13 47.5 30.86 47.32 30.83C47.14 30.79 46.98 30.95 46.74 30.99C46.5 31.03 46.12 30.97 45.91 31.08C45.7 31.18 45.61 31.47 45.48 31.6C45.34 31.73 45.3 31.78 45.11 31.84C44.92 31.89 44.52 31.78 44.35 31.91C44.17 32.04 44.21 32.49 44.07 32.62C43.94 32.75 43.71 32.62 43.53 32.69C43.35 32.76 43.18 32.91 42.99 33.02C42.8 33.14 42.57 33.28 42.38 33.37C42.19 33.46 41.94 33.54 41.86 33.57C41.62 33.65 41.49 33.91 41.57 34.14C41.65 34.38 41.91 34.51 42.14 34.43Z"/>
        </g>
      </g>
      <g id="tip" data-part="tip">
        <path d="M24.02 49.36C23.59 49.61 22.35 50.36 21.46 50.87C20.57 51.37 19.64 51.89 18.68 52.4C17.73 52.9 16.65 53.31 15.72 53.9C14.8 54.49 14.09 55.32 13.13 55.93C12.18 56.54 10.93 56.98 9.99 57.57C9.04 58.17 8.31 58.84 7.47 59.49C6.63 60.13 5.69 60.72 4.94 61.44C4.18 62.17 3.48 62.56 2.95 63.85C2.41 65.14 1.4 67.64 1.71 69.17C2.02 70.69 3.6 72.11 4.81 73C6.02 73.89 7.49 74.16 8.96 74.52C10.43 74.88 12.42 74.96 13.62 75.18C14.83 75.4 15.25 75.76 16.18 75.84C17.1 75.91 18.14 75.71 19.16 75.64C20.19 75.57 21.32 75.53 22.32 75.44C23.32 75.34 24.14 75.2 25.19 75.06C26.24 74.92 27.49 74.77 28.59 74.62C29.7 74.46 30.75 74.36 31.81 74.13C32.88 73.89 33.92 73.42 34.98 73.2C36.03 72.97 37.1 72.96 38.14 72.77C39.19 72.59 40.23 72.3 41.25 72.07C42.27 71.84 43.78 71.49 44.28 71.38C45.32 71.22 46.03 70.26 45.88 69.22C45.72 68.18 44.76 67.47 43.72 67.62C43.21 67.66 41.68 67.79 40.65 67.87C39.62 67.95 38.57 68.06 37.52 68.11C36.48 68.15 35.42 68.1 34.37 68.12C33.32 68.13 32.25 68.2 31.2 68.2C30.15 68.21 29.12 68.13 28.05 68.13C26.99 68.13 25.78 68.15 24.79 68.21C23.8 68.27 23.05 68.53 22.13 68.5C21.2 68.46 20.16 68.1 19.24 68.01C18.33 67.92 17.42 68.07 16.65 67.95C15.88 67.83 15.57 67.44 14.61 67.3C13.64 67.16 11.81 67.27 10.86 67.13C9.9 66.99 9.2 66.49 8.89 66.46C8.59 66.43 8.97 66.69 9.02 66.95C9.07 67.21 9 68.03 9.22 68.03C9.43 68.03 9.83 67.45 10.31 66.96C10.78 66.47 11.44 65.7 12.08 65.08C12.72 64.45 13.37 63.87 14.14 63.22C14.91 62.56 15.85 61.8 16.7 61.14C17.55 60.48 18.38 59.89 19.25 59.27C20.12 58.65 21.06 58.05 21.94 57.42C22.81 56.78 23.65 56.1 24.49 55.47C25.34 54.84 26.57 53.94 26.98 53.64C28.16 52.82 28.46 51.2 27.64 50.02C26.82 48.84 25.2 48.54 24.02 49.36Z"/>
        <path opacity="0.3" d="M16.86 57.79C16.78 57.86 16.58 58.08 16.37 58.2C16.17 58.32 15.82 58.41 15.62 58.5C15.43 58.59 15.33 58.62 15.19 58.74C15.05 58.86 14.91 59.06 14.77 59.22C14.62 59.39 14.5 59.62 14.31 59.73C14.11 59.85 13.82 59.79 13.6 59.91C13.37 60.03 13.07 60.27 12.98 60.46C12.88 60.64 13.1 60.83 13.04 61.01C12.98 61.19 12.75 61.38 12.6 61.53C12.46 61.69 12.34 61.8 12.17 61.94C12.01 62.08 11.7 62.21 11.61 62.39C11.52 62.57 11.72 62.86 11.63 63.03C11.54 63.2 11.12 63.24 11.06 63.4C11 63.55 11.32 63.78 11.28 63.95C11.24 64.12 10.92 64.26 10.83 64.42C10.75 64.58 10.78 64.83 10.77 64.91C10.72 65.04 10.78 65.18 10.91 65.23C11.04 65.28 11.18 65.22 11.23 65.09C11.28 65.03 11.43 64.88 11.52 64.73C11.61 64.58 11.73 64.36 11.78 64.2C11.83 64.05 11.75 63.96 11.81 63.82C11.87 63.67 12.02 63.48 12.12 63.33C12.22 63.18 12.28 63.06 12.43 62.93C12.59 62.81 12.88 62.7 13.04 62.57C13.2 62.44 13.3 62.33 13.4 62.15C13.49 61.97 13.5 61.6 13.62 61.49C13.74 61.39 13.99 61.63 14.13 61.5C14.26 61.37 14.29 60.9 14.43 60.72C14.57 60.54 14.82 60.57 14.99 60.45C15.16 60.32 15.31 60.16 15.45 59.99C15.58 59.82 15.66 59.58 15.78 59.44C15.89 59.31 15.99 59.31 16.14 59.18C16.3 59.04 16.53 58.8 16.69 58.64C16.86 58.48 17.06 58.28 17.14 58.21C17.25 58.13 17.28 57.98 17.21 57.86C17.13 57.75 16.98 57.72 16.86 57.79Z"/>
      </g>
      <g id="nostril-r" data-part="nostril-r">
        <path d="M43.31 71.47C43.63 71.4 44.57 71.24 45.21 71.07C45.86 70.91 46.53 70.69 47.16 70.49C47.78 70.29 48.36 70.08 48.97 69.87C49.57 69.67 50.17 69.53 50.79 69.25C51.4 68.98 52.09 68.61 52.66 68.22C53.22 67.83 53.78 67.43 54.19 66.92C54.6 66.4 54.83 65.67 55.12 65.11C55.41 64.54 55.67 64.08 55.92 63.52C56.18 62.96 56.38 62.35 56.65 61.75C56.91 61.15 57.32 60.56 57.5 59.92C57.67 59.29 57.69 58.6 57.68 57.96C57.68 57.32 57.52 56.71 57.45 56.09C57.37 55.47 57.38 54.78 57.24 54.23C57.09 53.67 56.81 53.21 56.58 52.76C56.34 52.3 56.12 51.9 55.84 51.49C55.56 51.08 55.06 50.48 54.91 50.28C54.73 50 54.36 49.92 54.08 50.09C53.8 50.27 53.72 50.64 53.89 50.92C53.95 51.14 54.09 51.83 54.23 52.24C54.36 52.64 54.62 52.94 54.68 53.34C54.74 53.73 54.59 54.17 54.58 54.63C54.57 55.09 54.71 55.62 54.61 56.09C54.52 56.55 54.11 56.96 53.99 57.43C53.87 57.89 54.05 58.42 53.89 58.88C53.73 59.34 53.31 59.75 53.04 60.16C52.77 60.57 52.59 61.01 52.29 61.33C52 61.66 51.57 61.79 51.26 62.11C50.96 62.43 50.76 62.91 50.45 63.27C50.14 63.63 49.75 63.9 49.39 64.28C49.03 64.66 48.7 65.23 48.3 65.56C47.9 65.88 47.42 65.97 47 66.24C46.58 66.51 46.23 66.9 45.76 67.2C45.3 67.49 44.75 67.76 44.24 67.99C43.73 68.21 42.94 68.44 42.69 68.53C41.88 68.71 41.36 69.5 41.53 70.31C41.71 71.12 42.5 71.64 43.31 71.47Z"/>
        <path d="M50 59.5c-4-2.2-9 0.3-7.5 4.4 1 3 5.4 3 7.2 0.7 1.2-1.6 1.2-3.6 0.3-5.1z"/>
      </g>
      <g id="nostril-l" data-part="nostril-l">
        <path d="M8.88 61.41C8.8 61.4 8.55 61.3 8.37 61.35C8.2 61.39 8 61.64 7.82 61.7C7.64 61.75 7.44 61.61 7.28 61.66C7.12 61.7 7 61.92 6.86 61.96C6.72 62 6.58 61.83 6.42 61.91C6.26 61.98 6.13 62.33 5.91 62.42C5.69 62.51 5.29 62.38 5.1 62.44C4.9 62.5 4.79 62.64 4.73 62.78C4.66 62.92 4.69 63.06 4.7 63.29C4.71 63.52 4.81 63.99 4.77 64.18C4.74 64.36 4.52 64.23 4.48 64.39C4.44 64.54 4.6 64.91 4.55 65.09C4.51 65.27 4.2 65.31 4.22 65.46C4.23 65.61 4.56 65.79 4.65 65.98C4.73 66.18 4.7 66.46 4.74 66.65C4.79 66.84 4.88 67.04 4.91 67.12C4.98 67.44 5.29 67.65 5.62 67.59C5.94 67.52 6.15 67.21 6.09 66.88C6.1 66.82 6.1 66.66 6.16 66.51C6.21 66.35 6.41 66.11 6.42 65.97C6.43 65.83 6.24 65.74 6.24 65.65C6.25 65.57 6.32 65.54 6.44 65.46C6.56 65.38 6.94 65.24 6.99 65.17C7.03 65.09 6.69 65.1 6.7 65.01C6.71 64.92 6.96 64.7 7.03 64.61C7.1 64.53 7.08 64.53 7.13 64.49C7.18 64.46 7.29 64.5 7.34 64.42C7.38 64.34 7.28 64.09 7.38 64.01C7.48 63.93 7.89 64.05 7.96 63.95C8.02 63.85 7.75 63.57 7.76 63.42C7.76 63.27 7.88 63.13 7.98 63.06C8.07 62.99 8.19 63.06 8.32 63C8.45 62.94 8.64 62.79 8.77 62.72C8.9 62.65 9.06 62.61 9.12 62.59C9.44 62.52 9.65 62.21 9.59 61.88C9.52 61.56 9.21 61.35 8.88 61.41Z"/>
        
      </g>
    </g>
    <g id="scent" data-part="scent" fill="var(--nose-accent, #e4572e)" stroke="none" opacity="0">
      <path d="M6.39 98.31C6.57 98.01 7.23 97.1 7.46 96.49C7.69 95.89 7.73 95.35 7.78 94.71C7.82 94.07 7.81 93.25 7.74 92.66C7.67 92.07 7.48 91.75 7.35 91.16C7.22 90.57 7.15 89.72 6.97 89.15C6.79 88.58 6.37 88.21 6.26 87.73C6.15 87.25 6.23 86.71 6.34 86.28C6.46 85.86 6.64 85.6 6.94 85.19C7.25 84.78 7.81 84.48 8.17 83.85C8.52 83.23 8.87 82.17 9.06 81.45C9.25 80.73 9.33 80.14 9.3 79.52C9.26 78.91 9.08 78.34 8.83 77.75C8.59 77.17 8 76.58 7.83 76.01C7.65 75.43 7.79 74.82 7.8 74.3C7.8 73.78 7.75 73.39 7.85 72.9C7.95 72.4 8.31 71.57 8.4 71.3C8.57 71.08 8.52 70.77 8.3 70.6C8.08 70.43 7.77 70.48 7.6 70.7C7.44 71.01 6.84 71.96 6.64 72.58C6.43 73.19 6.44 73.76 6.39 74.39C6.34 75.02 6.28 75.71 6.32 76.35C6.36 77 6.55 77.7 6.62 78.26C6.69 78.82 6.72 79.27 6.72 79.7C6.73 80.12 6.75 80.38 6.66 80.83C6.56 81.27 6.52 81.82 6.16 82.35C5.8 82.88 4.89 83.39 4.51 84.01C4.12 84.63 3.94 85.37 3.86 86.06C3.79 86.74 3.91 87.48 4.04 88.12C4.16 88.77 4.34 89.31 4.61 89.91C4.88 90.52 5.43 91.22 5.64 91.75C5.85 92.28 5.74 92.62 5.87 93.12C6.01 93.62 6.4 94.23 6.47 94.73C6.54 95.23 6.44 95.62 6.3 96.12C6.16 96.61 5.72 97.43 5.61 97.69C5.44 97.9 5.47 98.22 5.69 98.39C5.9 98.56 6.22 98.53 6.39 98.31Z"/>
        <path d="M16.39 100.31C16.57 100 17.18 99.06 17.45 98.45C17.73 97.85 17.98 97.3 18.04 96.67C18.1 96.04 17.89 95.3 17.8 94.66C17.72 94.03 17.66 93.39 17.53 92.85C17.39 92.32 17.11 91.96 17 91.44C16.88 90.93 16.88 90.24 16.85 89.76C16.82 89.27 16.81 88.96 16.81 88.53C16.81 88.1 16.65 87.64 16.86 87.18C17.08 86.71 17.73 86.35 18.12 85.74C18.5 85.12 18.97 84.18 19.17 83.48C19.36 82.77 19.39 82.15 19.29 81.51C19.19 80.87 18.79 80.24 18.57 79.65C18.34 79.05 18.09 78.48 17.95 77.94C17.82 77.4 17.78 76.92 17.76 76.41C17.73 75.89 17.67 75.39 17.78 74.87C17.89 74.36 18.3 73.56 18.4 73.3C18.57 73.08 18.52 72.77 18.3 72.6C18.08 72.43 17.77 72.48 17.6 72.7C17.44 73.01 16.84 73.94 16.64 74.58C16.43 75.21 16.38 75.88 16.35 76.5C16.32 77.12 16.41 77.68 16.46 78.28C16.5 78.88 16.53 79.53 16.64 80.09C16.75 80.65 17.12 81.2 17.12 81.65C17.13 82.11 16.83 82.39 16.67 82.83C16.5 83.26 16.53 83.73 16.14 84.25C15.74 84.77 14.61 85.26 14.3 85.93C13.98 86.61 14.26 87.59 14.26 88.3C14.26 89.01 14.19 89.58 14.29 90.21C14.39 90.85 14.69 91.57 14.86 92.14C15.03 92.7 15.16 93.12 15.32 93.62C15.48 94.12 15.62 94.64 15.82 95.15C16.01 95.66 16.38 96.21 16.48 96.7C16.57 97.19 16.51 97.6 16.36 98.1C16.22 98.59 15.74 99.42 15.61 99.69C15.44 99.9 15.47 100.22 15.69 100.39C15.9 100.56 16.22 100.53 16.39 100.31Z"/>
        <path d="M26.39 98.31C26.54 98.15 27.06 97.7 27.28 97.36C27.5 97.03 27.61 96.67 27.71 96.3C27.81 95.93 27.85 95.49 27.89 95.14C27.93 94.78 27.95 94.52 27.94 94.18C27.92 93.84 27.82 93.45 27.79 93.1C27.76 92.76 27.82 92.41 27.78 92.08C27.74 91.75 27.64 91.45 27.55 91.13C27.47 90.8 27.41 90.43 27.28 90.13C27.16 89.84 26.93 89.62 26.81 89.33C26.69 89.05 26.65 88.7 26.59 88.42C26.52 88.13 26.46 87.89 26.41 87.62C26.36 87.34 26.36 87.07 26.29 86.77C26.22 86.47 25.96 86.08 25.98 85.82C25.99 85.56 26.3 85.47 26.41 85.21C26.51 84.94 26.46 84.54 26.62 84.23C26.78 83.92 27.23 83.5 27.35 83.35C27.55 83.16 27.55 82.84 27.35 82.65C27.16 82.45 26.84 82.45 26.65 82.65C26.48 82.8 25.92 83.23 25.63 83.55C25.35 83.87 25.07 84.23 24.91 84.56C24.74 84.9 24.73 85.19 24.64 85.55C24.55 85.92 24.48 86.35 24.38 86.75C24.28 87.14 24.07 87.57 24.06 87.94C24.05 88.31 24.17 88.65 24.3 88.98C24.44 89.31 24.83 89.6 24.87 89.95C24.92 90.3 24.47 90.77 24.55 91.09C24.63 91.42 25.15 91.62 25.33 91.89C25.51 92.16 25.54 92.45 25.64 92.71C25.75 92.98 25.83 93.23 25.97 93.49C26.1 93.76 26.38 94.05 26.45 94.31C26.51 94.56 26.38 94.76 26.35 95.02C26.31 95.28 26.27 95.6 26.22 95.88C26.17 96.17 26.17 96.43 26.06 96.73C25.96 97.03 25.69 97.53 25.61 97.69C25.44 97.9 25.47 98.22 25.69 98.39C25.9 98.56 26.22 98.53 26.39 98.31Z"/>
    </g>
    <g id="stink" data-part="stink" fill="none" stroke="var(--nose-accent, #e4572e)" stroke-width="2.6" opacity="0">
      <path d="M6 98l4-7-4-7 4-7"/>
      <path d="M16 100l4-7-4-7 4-7"/>
      <path d="M26 98l4-7-4-7"/>
    </g>
    <g id="marks" data-part="marks" fill="none" stroke="var(--nose-accent, #e4572e)" stroke-width="2.8">
      <g id="mark-ok" data-part="mark-ok" opacity="0">
        <path d="M16 34v12"/><path d="M10 40h12"/>
        <path d="M28 27v8"/><path d="M24 31h8"/>
      </g>
      <g id="mark-flick" data-part="mark-flick" opacity="0">
        <path d="M76 14l7-3"/><path d="M78 22l8-1"/>
      </g>
    </g>
  </g>
</svg>
